<?xml version="1.0" encoding="UTF-8"?><svg id="Layer_2" xmlns="http://www.w3.org/2000/svg" viewBox="0 0 546.22 382.73"><g id="Layer_1-2"><g><g><rect x="237.76" width="33.13" height="33.13"/><path d="M237.76,66.26h-33.13c0,18.3,14.83,33.13,33.13,33.13h33.13v-33.13h-33.13Z"/><path d="M303.97,99.44h-33.13v33.13h33.13c18.3,0,33.13-14.83,33.13-33.13h-33.13Z"/><path d="M337.93,33.24h-34.83v.02c-17.89,.47-32.25,15.1-32.25,33.11h0s32.25,0,32.25,0h34.83v-.03c17.67-.71,31.78-15.25,31.78-33.09h-31.78Z"/><path d="M270.89,132.2v32.67h0v.46h-.01c-.25,18.08-14.98,32.67-33.12,32.67v-32.67s0-.46,0-.46v-32.67h33.13Z"/></g><g><path d="M105.44,382.58h19.61v-93.22h-19.61v93.22Z"/><polygon points="363.26 308.67 394.82 308.67 394.82 382.58 415.25 382.58 415.25 308.67 445.77 308.67 445.77 289.36 363.26 289.36 363.26 308.67"/><path d="M56.43,289.36h-18.37l-38.06-.14v93.35H18.59s.14,0,.14,0v-37.33H56.07v-18.59H18.73v-18.7H56.65c10.13-.16,18.3-8.42,18.3-18.59h0s-18.3,0-18.3,0h-.22Z"/><path d="M340.47,289.22l-20.14-.1c.02,14.87-.02,29.43,0,44.3,0,5.07-.01,10.27-1.81,15.01-2.93,7.75-10.85,13.35-19.13,13.53-8.29,.18-16.44-5.06-19.71-12.68-2.26-5.27-2.27-11.2-2.24-16.94l.12-22.91c.06-11.25-9.03-20.4-20.28-20.41h0v4.44c0,13.95-.14,27.9-.09,41.85,.02,4.37-.37,8.78,.21,13.13,1.8,13.57,11.86,25.52,24.2,30.87,14.81,6.43,33.2,3.57,45.37-7.04,5.7-4.97,10.08-11.53,12.1-18.82,1.75-6.32,1.72-12.97,1.68-19.53-.09-15.03-.19-29.67-.28-44.71Z"/><path d="M524.67,382.53l21.55,.05-34.62-93.36h-22.42l-32.18,86.97,.06,.02-2.41,6.46,8.33-.1,13.17,.1,4.82-13.48c.37-1.01,.75-2.02,1.12-3.03h36.42l6.16,16.36Zm-22.84-36.19c-5.94,0-11.27,2.62-14.91,6.76,1.21-3.29,2.33-6.64,3.66-9.88,.92-2.23,1.62-4.55,2.5-6.8,1.15-2.96,2.47-5.58,3.59-8.56,1.2-3.19,2.51-6.58,3.71-9.77l10.65,28.25h-9.2Z"/><polygon points="233.06 363.77 181.48 363.77 181.48 289.25 162.89 289.25 162.89 363.77 162.89 363.82 162.87 363.82 162.87 365.12 162.84 365.12 162.84 382.68 233.07 382.68 233.07 365.12 233.06 365.12 233.06 363.77"/></g></g></g></svg>